<?xml version="1.0" encoding="UTF-8"?>
<svg version="1.1" xmlns="http://www.w3.org/2000/svg" width="270" height="270">
<path d="M0 0 C0.66 0 1.32 0 2 0 C2 1.32 2 2.64 2 4 C2.90363281 4.06058594 3.80726563 4.12117188 4.73828125 4.18359375 C6.50751953 4.30927734 6.50751953 4.30927734 8.3125 4.4375 C9.48425781 4.51871094 10.65601563 4.59992187 11.86328125 4.68359375 C15 5 15 5 18 6 C18 5.01 18 4.02 18 3 C42.35747142 3.11710323 64.81843505 21.08693284 81.26953125 37.2265625 C103.58332295 60.5954722 111.70440132 91.09925326 111.26171875 122.5546875 C111.00285946 131.47679206 110.57186605 142.08868397 106 150 C104.68 150 103.36 150 102 150 C100.19003784 155.65755469 98.64270983 161.0870696 98 167 C97.01 167 96.02 167 95 167 C94.773125 167.825 94.54625 168.65 94.3125 169.5 C92.72573768 173.73136618 90.49251763 177.25171013 88 181 C88.66 181 89.32 181 90 181 C87.56666631 194.26463607 70.5152345 206.07217838 59.95703125 213.42578125 C45.57979671 223.02129367 26.55699931 231.74710635 9 231 C9 230.01 9 229.02 9 228 C8.47921875 228.16371094 7.9584375 228.32742187 7.421875 228.49609375 C4.3243125 229.14058659 1.41158906 229.09411589 -1.75 229.0625 C-2.92046875 229.05347656 -4.0909375 229.04445312 -5.296875 229.03515625 C-6.18890625 229.02355469 -7.0809375 229.01195312 -8 229 C-8 229.66 -8 230.32 -8 231 C-8.66 231 -9.32 231 -10 231 C-10 230.01 -10 229.02 -10 228 C-10.90363281 228.01160156 -11.80726562 228.02320313 -12.73828125 228.03515625 C-13.91777344 228.04417969 -15.09726563 228.05320313 -16.3125 228.0625 C-17.48425781 228.07410156 -18.65601562 228.08570313 -19.86328125 228.09765625 C-23 228 -23 228 -26 227 C-26 227.99 -26 228.98 -26 230 C-26.99 230 -27.98 230 -29 230 C-29 228.68 -29 227.36 -29 226 C-29.74765625 225.87882813 -30.4953125 225.75765625 -31.265625 225.6328125 C-32.25046875 225.46523437 -33.2353125 225.29765625 -34.25 225.125 C-35.71179688 224.88136719 -35.71179688 224.88136719 -37.203125 224.6328125 C-39.77264117 224.05144152 -41.72071056 223.29159735 -44 222 C-44 222.66 -44 223.32 -44 224 C-44.66 224 -45.32 224 -46 224 C-46 222.68 -46 221.36 -46 220 C-46.86625 219.896875 -47.7325 219.79375 -48.625 219.6875 C-52 219 -52 219 -55 217.375 C-57.90026949 215.67620377 -57.90026949 215.67620377 -60.8046875 216.6484375 C-65.14460533 217.12593457 -66.63157524 215.78908066 -70.125 213.25 C-70.96369629 212.64079712 -70.96369629 212.64079712 -71.81933594 212.01928711 C-77.9614115 207.45766402 -83.5574402 202.36590403 -89 197 C-89.79148437 196.22140625 -90.58296875 195.4428125 -91.3984375 194.640625 C-105.43332969 179.96554475 -114.41247803 160.61799597 -119 141 C-119.22558594 140.03707031 -119.45117188 139.07414063 -119.68359375 138.08203125 C-125.42462893 108.10986828 -118.85086116 75.9591915 -101.8046875 50.75390625 C-82.92264084 24.93089819 -56.76466776 6.72805484 -25 1 C-23.68 1 -22.36 1 -21 1 C-21 1.99 -21 2.98 -21 4 C-19.75863281 3.75443359 -19.75863281 3.75443359 -18.4921875 3.50390625 C-14.67805811 2.9535453 -10.96646499 2.88910945 -7.125 2.9375 C-6.43664062 2.94201172 -5.74828125 2.94652344 -5.0390625 2.95117188 C-3.35933665 2.96283664 -1.67965625 2.98076729 0 3 C0 2.01 0 1.02 0 0 Z M-3 50 C-4.19560433 53.586813 -5.29530094 56.93803356 -6.17333984 60.57397461 C-6.38050629 61.42603989 -6.58767273 62.27810516 -6.80111694 63.1559906 C-7.01885773 64.06228714 -7.23659851 64.96858368 -7.4609375 65.90234375 C-7.6927774 66.85710098 -7.92461731 67.81185822 -8.16348267 68.79554749 C-8.90307066 71.84228561 -9.63932679 74.88981443 -10.375 77.9375 C-15.78281006 100.3122241 -15.78281006 100.3122241 -17.93359375 108.2578125 C-20.72501393 118.57421005 -23.25002324 128.95822495 -25.80102539 139.33618164 C-26.69181229 142.95501875 -27.5890474 146.57222145 -28.48632812 150.18945312 C-29.0576891 152.51031886 -29.62866633 154.83127911 -30.19921875 157.15234375 C-30.46586838 158.22330795 -30.73251801 159.29427216 -31.00724792 160.39768982 C-32.35515843 165.91440926 -33.66443338 171.31995114 -34 177 C-32.06029948 179.38392117 -32.06029948 179.38392117 -28.5234375 179.1953125 C-27.14049032 179.18201493 -25.75761346 179.15816232 -24.375 179.125 C-23.66859375 179.11597656 -22.9621875 179.10695312 -22.234375 179.09765625 C-20.48943902 179.07407603 -18.74467705 179.03820461 -17 179 C-14.92553202 173.3052508 -13.65477861 167.4665098 -12.3203125 161.56640625 C-12.06627655 160.4562767 -11.8122406 159.34614716 -11.55050659 158.20237732 C-10.73919085 154.65638702 -9.93166309 151.1095514 -9.125 147.5625 C-3.16854966 121.37901219 -3.16854966 121.37901219 -0.07226562 110.0793457 C2.34187065 101.0697155 4.37422945 91.95586028 6.48364258 82.87133789 C7.32005055 79.28008044 8.16885175 75.69187902 9.01757812 72.10351562 C9.5502459 69.81528252 10.08217442 67.52687716 10.61328125 65.23828125 C10.99592888 63.6336779 10.99592888 63.6336779 11.38630676 61.99665833 C11.72742744 60.50811592 11.72742744 60.50811592 12.07543945 58.98950195 C12.27877396 58.11985306 12.48210846 57.25020416 12.69160461 56.35420227 C13.18523309 53.70254123 13.18523309 53.70254123 12 50 C7.05 50 2.1 50 -3 50 Z M20 65 C20 96.35 20 127.7 20 160 C46.80317231 164.1892506 46.80317231 164.1892506 71 155 C75.21497823 150.56419992 77.21997104 146.7568824 78.78515625 140.87109375 C78.99600357 140.09027939 79.20685089 139.30946503 79.42408752 138.50498962 C81.47272976 130.2160215 81.65664622 122.08205078 81.48706055 113.58374023 C81.43703914 111.03905523 81.42552093 108.49630831 81.41992188 105.95117188 C81.59477405 87.359222 81.59477405 87.359222 73.4296875 71.28125 C67.47413429 65.8331206 61.68913778 63.6114812 53.6328125 63.671875 C52.95378876 63.67374817 52.27476501 63.67562134 51.57516479 63.67755127 C50.14820394 63.68422898 48.72126004 63.6980573 47.29443359 63.71875 C45.13751705 63.7498197 42.98133683 63.75972452 40.82421875 63.765625 C33.77675825 63.81191473 27.03939082 64.21784546 20 65 Z M-90 66 C-90.02312178 78.10841944 -90.04091424 90.21683367 -90.05181217 102.32527065 C-90.05704136 107.94707962 -90.06413966 113.56887353 -90.07543945 119.19067383 C-90.08626706 124.61118277 -90.09227656 130.0316772 -90.09487724 135.45219612 C-90.09673172 137.52514945 -90.10035277 139.59810194 -90.10573006 141.67104912 C-90.1129388 144.56383893 -90.11399101 147.45656796 -90.11352539 150.34936523 C-90.11712067 151.21538864 -90.12071594 152.08141205 -90.12442017 152.97367859 C-90.49347037 156.79515488 -90.49347037 156.79515488 -89 160 C-87.50678703 160.10350194 -86.00874343 160.13850739 -84.51196289 160.14526367 C-83.08026512 160.15483345 -83.08026512 160.15483345 -81.61964417 160.16459656 C-80.58113815 160.16570938 -79.54263214 160.1668222 -78.47265625 160.16796875 C-76.88377846 160.17296135 -76.88377846 160.17296135 -75.26280212 160.17805481 C-73.01740962 160.18312869 -70.77200955 160.18546299 -68.52661133 160.18530273 C-65.08076622 160.18748841 -61.63524148 160.20563721 -58.18945312 160.22460938 C-56.01302193 160.22754329 -53.83658921 160.2295281 -51.66015625 160.23046875 C-50.62367447 160.23765427 -49.58719269 160.24483978 -48.51930237 160.25224304 C-47.56168503 160.24916641 -46.60406769 160.24608978 -45.61743164 160.24291992 C-44.77217422 160.24434494 -43.92691681 160.24576996 -43.05604553 160.24723816 C-40.77602006 160.18777223 -40.77602006 160.18777223 -39 158 C-38.75660449 155.10116917 -38.75660449 155.10116917 -38.875 151.875 C-38.89304688 150.77929688 -38.91109375 149.68359375 -38.9296875 148.5546875 C-38.95289063 147.71164063 -38.97609375 146.86859375 -39 146 C-41.95810476 144.52094762 -44.9547155 144.87809097 -48.1953125 144.90234375 C-48.90275604 144.9037587 -49.61019958 144.90517365 -50.33908081 144.90663147 C-52.60109669 144.912234 -54.86301398 144.92478682 -57.125 144.9375 C-58.65755065 144.94251468 -60.19010286 144.94707764 -61.72265625 144.95117188 C-65.48183947 144.96135384 -69.24080924 144.98092857 -73 145 C-73 136.09 -73 127.18 -73 118 C-59.625 118.125 -59.625 118.125 -55.40869141 118.18017578 C-54.31733887 118.1851709 -53.22598633 118.19016602 -52.1015625 118.1953125 C-50.98088379 118.20578613 -49.86020508 118.21625977 -48.70556641 118.22705078 C-45.85022157 118.28055323 -45.85022157 118.28055323 -44 116 C-43.68050269 113.40083917 -43.68050269 113.40083917 -43.75 110.5 C-43.74484375 109.5203125 -43.7396875 108.540625 -43.734375 107.53125 C-43.74924955 104.83111848 -43.74924955 104.83111848 -46 103 C-48.81711479 102.72138603 -48.81711479 102.72138603 -52.1015625 102.8046875 C-53.91914062 102.81435547 -53.91914062 102.81435547 -55.7734375 102.82421875 C-57.04445312 102.84097656 -58.31546875 102.85773438 -59.625 102.875 C-61.543125 102.88853516 -61.543125 102.88853516 -63.5 102.90234375 C-66.66685167 102.92597697 -69.83333424 102.95892371 -73 103 C-72.98839844 101.91460937 -72.97679688 100.82921875 -72.96484375 99.7109375 C-72.95545862 98.26562673 -72.94635919 96.82031409 -72.9375 95.375 C-72.92912109 94.66214844 -72.92074219 93.94929688 -72.91210938 93.21484375 C-72.90888672 92.51230469 -72.90566406 91.80976562 -72.90234375 91.0859375 C-72.89710693 90.4470459 -72.89187012 89.8081543 -72.88647461 89.14990234 C-73.03234348 86.38749094 -73.51050574 83.72016534 -74 81 C-73.14245117 81.02094727 -72.28490234 81.04189453 -71.40136719 81.06347656 C-68.21081528 81.13176527 -65.02063654 81.18185513 -61.82958984 81.21972656 C-60.4502332 81.23980642 -59.07096131 81.26707666 -57.69189453 81.30175781 C-55.70643021 81.35042817 -53.72033746 81.37086418 -51.734375 81.390625 C-50.54038086 81.41157227 -49.34638672 81.43251953 -48.11621094 81.45410156 C-44.38872377 80.9109234 -43.23697642 79.97367871 -41 77 C-40.48297648 74.45126284 -40.48297648 74.45126284 -40.6875 71.8125 C-40.71199219 70.93207031 -40.73648438 70.05164063 -40.76171875 69.14453125 C-40.77173822 67.0200301 -40.77173822 67.0200301 -42 66 C-43.50418739 65.90688111 -45.01271356 65.88253972 -46.51977539 65.88647461 C-47.48069595 65.88655014 -48.44161652 65.88662567 -49.43165588 65.88670349 C-50.99882607 65.89444542 -50.99882607 65.89444542 -52.59765625 65.90234375 C-53.66165146 65.9037587 -54.72564667 65.90517365 -55.82188416 65.90663147 C-59.23545083 65.91224936 -62.648953 65.92480489 -66.0625 65.9375 C-68.37044176 65.94251269 -70.67838455 65.947076 -72.98632812 65.95117188 C-78.65757426 65.9622246 -84.32878253 65.97898013 -90 66 Z " fill="#042239" transform="translate(133,13)"/>
<path d="M0 0 C1.4223667 -0.01658263 2.84464927 -0.04390396 4.26660156 -0.08203125 C14.12650619 -0.34350687 22.46483403 0.17400686 30.09399414 7.0612793 C39.70971024 17.04694775 38.45874837 31.74938447 38.54858398 44.62744141 C38.56501525 46.34144795 38.59213204 48.05538972 38.63061523 49.76904297 C38.93005188 63.24108817 38.59092029 79.12086295 29.88598633 90.22509766 C20.42491948 99.27391759 9.63135438 98.61092706 -2.80151367 98.35009766 C-9.40151367 97.69009766 -16.00151367 97.03009766 -22.80151367 96.35009766 C-22.80151367 65.00009766 -22.80151367 33.65009766 -22.80151367 1.35009766 C-15.13474132 0.49823406 -7.68760172 0.06539631 0 0 Z M-4.80151367 15.35009766 C-4.80151367 37.46009766 -4.80151367 59.57009766 -4.80151367 82.35009766 C0.80848633 82.35009766 6.41848633 82.35009766 12.19848633 82.35009766 C19.19068972 75.35789427 18.35264153 67.29206599 18.40161133 57.81884766 C18.41016144 56.50491028 18.41016144 56.50491028 18.41888428 55.16442871 C18.42826306 53.325777 18.4348396 51.48710903 18.4387207 49.6484375 C18.44846124 46.85728537 18.47956631 44.06686004 18.51098633 41.27587891 C18.51751509 39.47770613 18.52276606 37.67952817 18.52661133 35.88134766 C18.53895813 35.05920776 18.55130493 34.23706787 18.56402588 33.39001465 C18.539998 27.05600856 17.86115809 20.01276942 13.19848633 15.35009766 C7.25848633 15.35009766 1.31848633 15.35009766 -4.80151367 15.35009766 Z " fill="#20B1F8" transform="translate(175.801513671875,76.64990234375)"/>
<path d="M0 0 C6.81761894 -0.0252689 13.63522589 -0.04283244 20.45288086 -0.05493164 C22.77417451 -0.05997333 25.09546497 -0.06680651 27.41674805 -0.07543945 C30.74528795 -0.08751225 34.07378602 -0.09322979 37.40234375 -0.09765625 C38.44712387 -0.10281754 39.49190399 -0.10797882 40.56834412 -0.11329651 C41.52926468 -0.11337204 42.49018524 -0.11344757 43.48022461 -0.11352539 C44.33071884 -0.115746 45.18121307 -0.11796661 46.05747986 -0.12025452 C48 0 48 0 49 1 C49.23828125 3.14453125 49.23828125 3.14453125 49.3125 5.8125 C49.36857422 7.12154297 49.36857422 7.12154297 49.42578125 8.45703125 C48.85080544 11.89106112 47.73069506 12.87241349 45 15 C41.88378906 15.45410156 41.88378906 15.45410156 38.265625 15.390625 C36.97011719 15.37773438 35.67460938 15.36484375 34.33984375 15.3515625 C32.97655176 15.31814366 31.61327051 15.28428391 30.25 15.25 C28.87111936 15.22992707 27.49221088 15.21167767 26.11328125 15.1953125 C22.74148256 15.14815448 19.37109313 15.08234538 16 15 C16.24447876 16.35859131 16.24447876 16.35859131 16.49389648 17.74462891 C16.88781279 20.27838679 17.11853301 22.53897226 17.09765625 25.0859375 C17.09443359 25.78847656 17.09121094 26.49101563 17.08789062 27.21484375 C17.07951172 27.92769531 17.07113281 28.64054687 17.0625 29.375 C17.05798828 30.11105469 17.05347656 30.84710938 17.04882812 31.60546875 C17.03715142 33.40368158 17.01922011 35.20185197 17 37 C18.21115479 36.98428955 18.21115479 36.98428955 19.44677734 36.96826172 C23.08948682 36.92680169 26.73214675 36.90070562 30.375 36.875 C32.28152344 36.84986328 32.28152344 36.84986328 34.2265625 36.82421875 C36.04414062 36.81455078 36.04414062 36.81455078 37.8984375 36.8046875 C39.01911621 36.79421387 40.13979492 36.78374023 41.29443359 36.77294922 C44 37 44 37 46 39 C46.265625 41.53125 46.265625 41.53125 46.25 44.5 C46.25773437 45.96953125 46.25773437 45.96953125 46.265625 47.46875 C46 50 46 50 44 52 C41.29443359 52.22705078 41.29443359 52.22705078 37.8984375 52.1953125 C36.80708496 52.19031738 35.71573242 52.18532227 34.59130859 52.18017578 C33.19992676 52.16196777 31.80854492 52.14375977 30.375 52.125 C25.96125 52.08375 21.5475 52.0425 17 52 C17 60.91 17 69.82 17 79 C20.43019531 78.98259766 20.43019531 78.98259766 23.9296875 78.96484375 C26.14046083 78.95704869 28.35123263 78.95097448 30.56201172 78.94506836 C32.10043013 78.94003448 33.63884375 78.93320692 35.17724609 78.92456055 C37.38640526 78.91245361 39.59550126 78.90676231 41.8046875 78.90234375 C42.83914505 78.89460182 42.83914505 78.89460182 43.89450073 78.88670349 C48.77225659 78.88612829 48.77225659 78.88612829 51 80 C51.05389087 81.95803507 51.09274217 83.91648909 51.125 85.875 C51.14820313 86.96554688 51.17140625 88.05609375 51.1953125 89.1796875 C51 92 51 92 49 94 C46.94395447 94.24723816 46.94395447 94.24723816 44.38256836 94.24291992 C43.42495102 94.24599655 42.46733368 94.24907318 41.48069763 94.25224304 C40.44421585 94.24505753 39.40773407 94.23787201 38.33984375 94.23046875 C36.74953087 94.22978142 36.74953087 94.22978142 35.12709045 94.2290802 C32.88346234 94.22605571 30.63983638 94.21816356 28.39624023 94.20581055 C24.94832991 94.18755733 21.50068796 94.18530079 18.05273438 94.18554688 C15.87760183 94.18063176 13.70247111 94.17480347 11.52734375 94.16796875 C10.48883774 94.16685593 9.45033173 94.1657431 8.38035583 94.16459656 C6.94865807 94.15502678 6.94865807 94.15502678 5.48803711 94.14526367 C4.64357529 94.14145187 3.79911346 94.13764008 2.92906189 94.13371277 C1 94 1 94 0 93 C-0.09523905 90.10856849 -0.12553027 87.24107936 -0.11352539 84.34936523 C-0.11367142 83.44213715 -0.11381744 82.53490906 -0.1139679 81.60018921 C-0.11326841 78.58630015 -0.10547434 75.57247207 -0.09765625 72.55859375 C-0.0957922 70.47494033 -0.09436824 68.39128646 -0.09336853 66.30763245 C-0.08954234 60.81176554 -0.0797112 55.31592487 -0.06866455 49.82006836 C-0.0584526 44.21663773 -0.05387137 38.61320287 -0.04882812 33.00976562 C-0.03808902 22.00649886 -0.02101139 11.00325161 0 0 Z " fill="#FBFCFC" transform="translate(43,79)"/>
<path d="M0 0 C4.95 0 9.9 0 15 0 C15.98917708 3.95670833 15.95654182 5.21528382 15.06298828 9.00756836 C14.83135986 10.01036835 14.59973145 11.01316833 14.36108398 12.0463562 C14.10012939 13.13320709 13.8391748 14.22005798 13.5703125 15.33984375 C13.30468506 16.47712921 13.03905762 17.61441467 12.76538086 18.78616333 C11.89415489 22.50543155 11.00975476 26.221429 10.125 29.9375 C9.52130314 32.50236529 8.91827895 35.06738901 8.31591797 37.63256836 C4.64020937 53.2490471 0.88713073 68.84666545 -2.94873047 84.42456055 C-5.7540977 95.84015705 -8.36914358 107.29420649 -10.88232422 118.77758789 C-11.14803223 119.98020264 -11.41374023 121.18281738 -11.6875 122.421875 C-11.91824219 123.47987305 -12.14898437 124.53787109 -12.38671875 125.62792969 C-13 128 -13 128 -14 129 C-16.53049402 129.07313567 -19.03304837 129.09247527 -21.5625 129.0625 C-22.27341797 129.05798828 -22.98433594 129.05347656 -23.71679688 129.04882812 C-25.47790013 129.03700864 -27.23896036 129.01907263 -29 129 C-30.37427723 126.75991531 -31.03359774 125.44909643 -30.83496094 122.79394531 C-30.63676758 121.98022461 -30.43857422 121.16650391 -30.234375 120.328125 C-30.00862793 119.37341309 -29.78288086 118.41870117 -29.55029297 117.43505859 C-29.28619629 116.38398926 -29.02209961 115.33291992 -28.75 114.25 C-28.48203613 113.13834473 -28.21407227 112.02668945 -27.93798828 110.88134766 C-27.15514878 107.65608355 -26.358002 104.43500312 -25.55310059 101.21520996 C-24.9626021 98.85021858 -24.37598375 96.48428765 -23.79003906 94.11816406 C-21.66484808 85.54094559 -19.52525741 76.96744288 -17.3671875 68.3984375 C-17.1650766 67.59586517 -16.9629657 66.79329285 -16.75473022 65.96640015 C-15.99445462 62.94784812 -15.23416433 59.92929982 -14.47357178 56.91082764 C-12.51564803 49.13423548 -10.59262248 41.35009954 -8.7109375 33.5546875 C-8.51897797 32.7599704 -8.32701843 31.9652533 -8.12924194 31.14645386 C-7.34347777 27.89193336 -6.55804535 24.63734059 -5.77636719 21.38183594 C-5.19440983 18.95971228 -4.60918888 16.53839602 -4.0234375 14.1171875 C-3.84944427 13.38901825 -3.67545105 12.660849 -3.4961853 11.91061401 C-2.5082606 7.83967369 -1.33018112 3.99054335 0 0 Z " fill="#20B1F8" transform="translate(130,63)"/>
<path d="M0 0 C5.94 0 11.88 0 18 0 C22.88935833 6.51914444 23.29819173 12.49003832 23.23046875 20.3359375 C23.22978142 21.65411972 23.22978142 21.65411972 23.2290802 22.99893188 C23.2260727 24.84956215 23.2182317 26.70019022 23.20581055 28.55078125 C23.1876007 31.35946797 23.18530093 34.16782296 23.18554688 36.9765625 C23.18062862 38.78385697 23.17479896 40.59114924 23.16796875 42.3984375 C23.16685593 43.2268515 23.1657431 44.0552655 23.16459656 44.90878296 C23.03722327 60.83235422 23.03722327 60.83235422 19 66 C13.32745403 68.83627298 6.3420992 67 0 67 C0 44.89 0 22.78 0 0 Z " fill="#001930" transform="translate(171,92)"/>
<path d="M0 0 C1.32 0 2.64 0 4 0 C3.48099339 6.10596007 0.83125898 11.07632278 -1.8125 16.5 C-2.25142578 17.42425781 -2.69035156 18.34851563 -3.14257812 19.30078125 C-5.46622098 24.12760549 -7.88316979 28.64079692 -11 33 C-11.33 32.34 -11.66 31.68 -12 31 C-12.66 31 -13.32 31 -14 31 C-12.23570801 26.02790438 -9.6060834 21.56561939 -7 17 C-6.01 17 -5.02 17 -4 17 C-4.21527344 16.47921875 -4.43054688 15.9584375 -4.65234375 15.421875 C-5.16028599 11.88340098 -3.90618991 9.52729246 -2.5625 6.25 C-1.85287109 4.49429688 -1.85287109 4.49429688 -1.12890625 2.703125 C-0.75636719 1.81109375 -0.38382813 0.9190625 0 0 Z " fill="#41A7DA" transform="translate(235,163)"/>
<path d="M0 0 C3.35867712 0.75970078 6.52123658 1.87093255 9.75 3.0625 C11.22726563 3.60583984 11.22726563 3.60583984 12.734375 4.16015625 C13.48203125 4.43730469 14.2296875 4.71445313 15 5 C15 6.32 15 7.64 15 9 C15.66 9 16.32 9 17 9 C17 8.34 17 7.68 17 7 C20.26520744 7.80075325 23.50746067 8.67466185 26.75 9.5625 C27.73484375 9.83191406 28.7196875 10.10132813 29.734375 10.37890625 C30.48203125 10.58386719 31.2296875 10.78882813 32 11 C32 12.32 32 13.64 32 15 C20.33917957 12.35115881 9.26822558 9.38295104 -1 3 C-0.67 2.01 -0.34 1.02 0 0 Z " fill="#42AADD" transform="translate(72,228)"/>
<path d="M0 0 C5.28 0.33 10.56 0.66 16 1 C16 1.99 16 2.98 16 4 C16.66 4 17.32 4 18 4 C18 3.34 18 2.68 18 2 C26.415 1.505 26.415 1.505 35 1 C35 2.32 35 3.64 35 5 C30.97982745 5.02485364 26.95968512 5.04293238 22.93945312 5.05493164 C21.5738853 5.05993786 20.20832276 5.06674482 18.84277344 5.07543945 C16.87176882 5.08766831 14.9007239 5.09272866 12.9296875 5.09765625 C11.15440674 5.10551147 11.15440674 5.10551147 9.34326172 5.11352539 C6.13846468 5.00470177 3.14523388 4.60517483 0 4 C0 2.68 0 1.36 0 0 Z " fill="#3EAADF" transform="translate(107,240)"/>
<path d="M0 0 C1.20366211 0.00483398 1.20366211 0.00483398 2.43164062 0.00976562 C3.68170898 0.02233398 3.68170898 0.02233398 4.95703125 0.03515625 C5.80201172 0.03966797 6.64699219 0.04417969 7.51757812 0.04882812 C9.6015928 0.06060222 11.68557102 0.07853735 13.76953125 0.09765625 C13.76953125 1.08765625 13.76953125 2.07765625 13.76953125 3.09765625 C3.37453125 3.59265625 3.37453125 3.59265625 -7.23046875 4.09765625 C-7.23046875 3.10765625 -7.23046875 2.11765625 -7.23046875 1.09765625 C-4.46481493 0.17577164 -2.84763173 -0.02019597 0 0 Z " fill="#40B1E8" transform="translate(119.23046875,12.90234375)"/>
<path d="M0 0 C2.06277107 0.14194764 4.12521031 0.28872216 6.1875 0.4375 C7.91033203 0.55931641 7.91033203 0.55931641 9.66796875 0.68359375 C12.51598171 0.95403812 15.21210482 1.37521747 18 2 C17.01 2.495 17.01 2.495 16 3 C16 3.99 16 4.98 16 6 C10.72 5.34 5.44 4.68 0 4 C0 2.68 0 1.36 0 0 Z " fill="#3EA5DA" transform="translate(135,13)"/>
</svg>
